<mxfile host="app.diagrams.net" modified="2020-10-01T06:37:32.328Z" agent="5.0 (Windows)" etag="HlYedHb4PPgAQhoCjq1g" version="13.7.7" type="github">
  <diagram id="JMG7Og392h3I-otRAJf4" name="Page-1">
    <mxGraphModel dx="986" dy="1387" grid="0" gridSize="10" guides="1" tooltips="1" connect="1" arrows="1" fold="1" page="0" pageScale="1" pageWidth="1169" pageHeight="827" background="#F4F1DE" math="0" shadow="0">
      <root>
        <mxCell id="0" />
        <mxCell id="1" parent="0" />
        <mxCell id="4F_5oUC_MU-JNdt0lTQq-11" value="PIXI.container" style="swimlane;fontStyle=1;align=center;verticalAlign=top;childLayout=stackLayout;horizontal=1;startSize=26;horizontalStack=0;resizeParent=1;resizeParentMax=0;resizeLast=0;collapsible=1;marginBottom=0;fillColor=#F2CC8F;strokeColor=#E07A5F;fontColor=#393C56;rounded=1;" parent="1" vertex="1" collapsed="1">
          <mxGeometry x="369" y="-440" width="90" height="26" as="geometry">
            <mxRectangle x="334" y="-300" width="160" height="86" as="alternateBounds" />
          </mxGeometry>
        </mxCell>
        <mxCell id="4F_5oUC_MU-JNdt0lTQq-12" value="+ field: type" style="text;strokeColor=none;fillColor=none;align=left;verticalAlign=top;spacingLeft=4;spacingRight=4;overflow=hidden;rotatable=0;points=[[0,0.5],[1,0.5]];portConstraint=eastwest;fontColor=#393C56;rounded=1;" parent="4F_5oUC_MU-JNdt0lTQq-11" vertex="1">
          <mxGeometry y="26" width="90" height="26" as="geometry" />
        </mxCell>
        <mxCell id="4F_5oUC_MU-JNdt0lTQq-13" value="" style="line;strokeWidth=1;fillColor=none;align=left;verticalAlign=middle;spacingTop=-1;spacingLeft=3;spacingRight=3;rotatable=0;labelPosition=right;points=[];portConstraint=eastwest;labelBackgroundColor=#F4F1DE;strokeColor=#E07A5F;fontColor=#393C56;rounded=1;" parent="4F_5oUC_MU-JNdt0lTQq-11" vertex="1">
          <mxGeometry y="52" width="90" height="8" as="geometry" />
        </mxCell>
        <mxCell id="4F_5oUC_MU-JNdt0lTQq-14" value="+ method(type): type" style="text;strokeColor=none;fillColor=none;align=left;verticalAlign=top;spacingLeft=4;spacingRight=4;overflow=hidden;rotatable=0;points=[[0,0.5],[1,0.5]];portConstraint=eastwest;fontColor=#393C56;rounded=1;" parent="4F_5oUC_MU-JNdt0lTQq-11" vertex="1">
          <mxGeometry y="60" width="90" height="26" as="geometry" />
        </mxCell>
        <mxCell id="4F_5oUC_MU-JNdt0lTQq-1" value="Spirit" style="swimlane;fontStyle=1;align=center;verticalAlign=top;childLayout=stackLayout;horizontal=1;startSize=30;horizontalStack=0;resizeParent=1;resizeParentMax=0;resizeLast=0;collapsible=1;marginBottom=0;fillColor=#F2CC8F;strokeColor=#E07A5F;fontColor=#393C56;rounded=1;" parent="1" vertex="1">
          <mxGeometry x="334" y="-340" width="160" height="90" as="geometry">
            <mxRectangle x="334" y="60" width="60" height="26" as="alternateBounds" />
          </mxGeometry>
        </mxCell>
        <mxCell id="4F_5oUC_MU-JNdt0lTQq-5" value="+ item: attribute" style="text;strokeColor=none;fillColor=none;align=left;verticalAlign=top;spacingLeft=4;spacingRight=4;overflow=hidden;rotatable=0;points=[[0,0.5],[1,0.5]];portConstraint=eastwest;fontColor=#393C56;rounded=1;" parent="4F_5oUC_MU-JNdt0lTQq-1" vertex="1">
          <mxGeometry y="30" width="160" height="26" as="geometry" />
        </mxCell>
        <mxCell id="4F_5oUC_MU-JNdt0lTQq-3" value="" style="line;strokeWidth=1;fillColor=none;align=left;verticalAlign=middle;spacingTop=-1;spacingLeft=3;spacingRight=3;rotatable=0;labelPosition=right;points=[];portConstraint=eastwest;labelBackgroundColor=#F4F1DE;strokeColor=#E07A5F;fontColor=#393C56;rounded=1;" parent="4F_5oUC_MU-JNdt0lTQq-1" vertex="1">
          <mxGeometry y="56" width="160" height="8" as="geometry" />
        </mxCell>
        <mxCell id="4F_5oUC_MU-JNdt0lTQq-4" value="+ method(type): type" style="text;strokeColor=none;fillColor=none;align=left;verticalAlign=top;spacingLeft=4;spacingRight=4;overflow=hidden;rotatable=0;points=[[0,0.5],[1,0.5]];portConstraint=eastwest;fontColor=#393C56;rounded=1;" parent="4F_5oUC_MU-JNdt0lTQq-1" vertex="1">
          <mxGeometry y="64" width="160" height="26" as="geometry" />
        </mxCell>
        <mxCell id="4F_5oUC_MU-JNdt0lTQq-15" value="Extends" style="endArrow=block;endSize=16;endFill=0;html=1;exitX=0.5;exitY=0;exitDx=0;exitDy=0;entryX=0.5;entryY=1;entryDx=0;entryDy=0;labelBackgroundColor=#F4F1DE;strokeColor=#E07A5F;fontColor=#393C56;" parent="1" source="4F_5oUC_MU-JNdt0lTQq-1" target="4F_5oUC_MU-JNdt0lTQq-11" edge="1">
          <mxGeometry width="160" relative="1" as="geometry">
            <mxPoint x="570" y="-350" as="sourcePoint" />
            <mxPoint x="730" y="-350" as="targetPoint" />
          </mxGeometry>
        </mxCell>
        <mxCell id="4F_5oUC_MU-JNdt0lTQq-16" value="Extends" style="endArrow=block;endSize=16;endFill=0;html=1;exitX=0.5;exitY=0;exitDx=0;exitDy=0;entryX=0.5;entryY=1;entryDx=0;entryDy=0;labelBackgroundColor=#F4F1DE;strokeColor=#E07A5F;fontColor=#393C56;" parent="1" source="4F_5oUC_MU-JNdt0lTQq-6" target="4F_5oUC_MU-JNdt0lTQq-1" edge="1">
          <mxGeometry width="160" relative="1" as="geometry">
            <mxPoint x="420" y="20" as="sourcePoint" />
            <mxPoint x="470" y="-200" as="targetPoint" />
          </mxGeometry>
        </mxCell>
        <mxCell id="4F_5oUC_MU-JNdt0lTQq-6" value="Marble" style="swimlane;fontStyle=1;align=center;verticalAlign=top;childLayout=stackLayout;horizontal=1;startSize=26;horizontalStack=0;resizeParent=1;resizeParentMax=0;resizeLast=0;collapsible=1;marginBottom=0;fillColor=#F2CC8F;strokeColor=#E07A5F;fontColor=#393C56;rounded=1;" parent="1" vertex="1">
          <mxGeometry x="334" y="-56" width="160" height="164" as="geometry" />
        </mxCell>
        <mxCell id="4F_5oUC_MU-JNdt0lTQq-17" value="+ item: attribute" style="text;strokeColor=none;fillColor=none;align=left;verticalAlign=top;spacingLeft=4;spacingRight=4;overflow=hidden;rotatable=0;points=[[0,0.5],[1,0.5]];portConstraint=eastwest;rounded=1;fontColor=#393C56;" parent="4F_5oUC_MU-JNdt0lTQq-6" vertex="1">
          <mxGeometry y="26" width="160" height="26" as="geometry" />
        </mxCell>
        <mxCell id="4F_5oUC_MU-JNdt0lTQq-7" value="+ id : &lt;MeteorID&gt;" style="text;strokeColor=none;fillColor=none;align=left;verticalAlign=top;spacingLeft=4;spacingRight=4;overflow=hidden;rotatable=0;points=[[0,0.5],[1,0.5]];portConstraint=eastwest;fontColor=#393C56;rounded=1;" parent="4F_5oUC_MU-JNdt0lTQq-6" vertex="1">
          <mxGeometry y="52" width="160" height="26" as="geometry" />
        </mxCell>
        <mxCell id="4F_5oUC_MU-JNdt0lTQq-18" value="+ item: attribute" style="text;strokeColor=none;fillColor=none;align=left;verticalAlign=top;spacingLeft=4;spacingRight=4;overflow=hidden;rotatable=0;points=[[0,0.5],[1,0.5]];portConstraint=eastwest;rounded=1;fontColor=#393C56;" parent="4F_5oUC_MU-JNdt0lTQq-6" vertex="1">
          <mxGeometry y="78" width="160" height="26" as="geometry" />
        </mxCell>
        <mxCell id="4F_5oUC_MU-JNdt0lTQq-19" value="+ item: attribute" style="text;strokeColor=none;fillColor=none;align=left;verticalAlign=top;spacingLeft=4;spacingRight=4;overflow=hidden;rotatable=0;points=[[0,0.5],[1,0.5]];portConstraint=eastwest;rounded=1;fontColor=#393C56;" parent="4F_5oUC_MU-JNdt0lTQq-6" vertex="1">
          <mxGeometry y="104" width="160" height="26" as="geometry" />
        </mxCell>
        <mxCell id="4F_5oUC_MU-JNdt0lTQq-8" value="" style="line;strokeWidth=1;fillColor=none;align=left;verticalAlign=middle;spacingTop=-1;spacingLeft=3;spacingRight=3;rotatable=0;labelPosition=right;points=[];portConstraint=eastwest;labelBackgroundColor=#F4F1DE;strokeColor=#E07A5F;fontColor=#393C56;rounded=1;" parent="4F_5oUC_MU-JNdt0lTQq-6" vertex="1">
          <mxGeometry y="130" width="160" height="8" as="geometry" />
        </mxCell>
        <mxCell id="4F_5oUC_MU-JNdt0lTQq-9" value="+ method(type): type" style="text;strokeColor=none;fillColor=none;align=left;verticalAlign=top;spacingLeft=4;spacingRight=4;overflow=hidden;rotatable=0;points=[[0,0.5],[1,0.5]];portConstraint=eastwest;fontColor=#393C56;rounded=1;" parent="4F_5oUC_MU-JNdt0lTQq-6" vertex="1">
          <mxGeometry y="138" width="160" height="26" as="geometry" />
        </mxCell>
      </root>
    </mxGraphModel>
  </diagram>
</mxfile>
